<svg width="199" height="73" fill="none" xmlns="http://www.w3.org/2000/svg"><path d="M77.956 55.798c5.017-2.23 17.058-5.24 25.085.557.929-.185 3.121-.557 4.459-.557v2.787c-.557 0-3.344-.557-3.679 2.23-.465 3.874-4.234 12.065-12.595 12.065-8.362 0-11.04-9.835-11.707-13.379-.23-1.225-1.563-1.474-2.678-1.474-.902 0-34.935-.185-51.841 0v-1.114h52.956v-1.115zm21.74 1.115c-1.672-2.23-6.132-2.787-11.706-2.23-4.459.447-5.575 4.273-5.575 6.132-.557 5.573 3.344 8.36 3.902 8.918.558.558 2.787 1.673 5.017 1.673 2.23 0 3.903-.558 5.018-1.115 1.114-.557 2.23-1.673 3.344-3.345.692-1.037 1.672-2.787 1.672-5.016 0-1.115 0-2.787-1.672-5.017zM137.044 55.798c-5.017-2.23-17.058-5.24-25.085.557-.929-.185-3.121-.557-4.459-.557v2.787c.557 0 3.344-.557 3.679 2.23.465 3.874 4.234 12.065 12.595 12.065 8.362 0 11.04-9.835 11.706-13.379.231-1.225 1.564-1.474 2.679-1.474.902 0 34.935-.185 51.841 0v-1.114h-52.956v-1.115zm-21.74 1.115c1.672-2.23 6.132-2.787 11.706-2.23 4.459.447 5.575 4.273 5.575 6.132.557 5.573-3.344 8.36-3.902 8.918-.558.558-2.787 1.673-5.017 1.673-2.23 0-3.903-.558-5.018-1.115-1.114-.557-2.23-1.673-3.344-3.345-.692-1.037-1.672-2.787-1.672-5.016 0-1.115 0-2.787 1.672-5.017zM178.367 37.32a8.701 8.701 0 00-.117 1.406c0 .704.098 1.377.293 2.022.215.625.518 1.182.908 1.67.41.469.908.84 1.494 1.113.606.274 1.289.41 2.051.41 2.559 0 5.029-.869 7.412-2.607 2.383-1.738 4.756-4.492 7.119-8.262l.996.88c-1.289 2.148-2.597 3.964-3.925 5.448-1.328 1.465-2.657 2.657-3.985 3.575-1.308.918-2.597 1.582-3.867 1.992-1.269.41-2.48.615-3.633.615-.84 0-1.728-.117-2.666-.352a8.055 8.055 0 01-2.607-1.171c-.781-.547-1.426-1.28-1.934-2.198-.527-.918-.791-2.06-.791-3.427 0-1.465.254-2.871.762-4.22a16.62 16.62 0 011.934-3.808 18.679 18.679 0 012.753-3.193 22.221 22.221 0 013.135-2.49c1.074-.684 2.119-1.211 3.135-1.582 1.016-.391 1.914-.586 2.695-.586.508 0 1.026.078 1.553.234.527.156.996.4 1.406.732.43.332.772.772 1.026 1.319.273.547.41 1.201.41 1.963a6.14 6.14 0 01-.733 2.93c-.468.898-1.103 1.738-1.904 2.519a15.423 15.423 0 01-2.783 2.08 22.241 22.241 0 01-3.311 1.553c-1.152.43-2.314.771-3.486 1.025-1.172.254-2.285.39-3.34.41zm.235-1.26a15.892 15.892 0 003.691-.82 16.885 16.885 0 003.164-1.494 16.575 16.575 0 002.549-1.963 13.497 13.497 0 001.904-2.139c.508-.722.899-1.415 1.172-2.08.273-.664.41-1.26.41-1.787 0-.527-.146-.947-.439-1.26-.274-.312-.606-.468-.996-.468-.86 0-1.827.312-2.901.937-1.074.606-2.148 1.455-3.222 2.55-1.075 1.073-2.09 2.343-3.047 3.808a22.385 22.385 0 00-2.285 4.716z" fill="#036"/><path d="M163.777 37.613a57.41 57.41 0 01-2.666 2.93 22.913 22.913 0 01-2.636 2.285 12.365 12.365 0 01-2.579 1.465 6.52 6.52 0 01-2.607.557c-.742 0-1.416-.137-2.021-.41a4.443 4.443 0 01-1.524-1.084 4.91 4.91 0 01-1.025-1.758c-.235-.703-.352-1.485-.352-2.344 0-1.348.303-2.734.908-4.16a23.846 23.846 0 012.227-4.16 35.688 35.688 0 013.018-3.838 62.81 62.81 0 013.164-3.223l1.259.879a837.525 837.525 0 00-2.373 3.516 64.861 64.861 0 00-2.461 4.072 32.197 32.197 0 00-1.933 4.19c-.528 1.386-.791 2.675-.791 3.867 0 .8.146 1.484.439 2.05.313.567.899.85 1.758.85.938 0 1.963-.371 3.076-1.113 1.133-.743 2.285-1.71 3.457-2.9a45.748 45.748 0 003.545-4.014 87.006 87.006 0 003.369-4.542 102.567 102.567 0 002.871-4.365 78.296 78.296 0 002.139-3.545l2.139 1.055a245.804 245.804 0 01-3.282 6.24 880.596 880.596 0 00-2.783 5.186c-.801 1.523-1.445 2.851-1.933 3.984-.469 1.133-.703 2.032-.703 2.695 0 .274.058.499.175.674.118.176.303.264.557.264.723.02 1.514-.293 2.373-.938.879-.644 1.758-1.455 2.637-2.431a36.306 36.306 0 002.607-3.194 99.916 99.916 0 002.315-3.28l1.054.82c-.117.195-.361.595-.732 1.2a41.51 41.51 0 01-1.377 2.08 41.523 41.523 0 01-1.875 2.462c-.703.86-1.445 1.65-2.227 2.373a13.397 13.397 0 01-2.431 1.758c-.84.449-1.67.674-2.491.674a3.46 3.46 0 01-1.376-.264 3.071 3.071 0 01-.997-.703 3.265 3.265 0 01-.644-1.026c-.156-.39-.234-.8-.234-1.23 0-.508.078-1.065.234-1.67.176-.606.42-1.25.732-1.934zM117.576 21.383a46.156 46.156 0 01-3.105 4.687 26.836 26.836 0 01-3.897 4.248 19.608 19.608 0 01-4.746 3.076c-1.738.782-3.633 1.172-5.683 1.172-1.68 0-3.252-.254-4.717-.761a11.095 11.095 0 01-3.838-2.315c-1.074-1.015-1.924-2.256-2.549-3.72-.605-1.485-.908-3.194-.908-5.127 0-2.364.361-4.532 1.084-6.504.742-1.992 1.738-3.78 2.988-5.362a21.152 21.152 0 014.365-4.19 26.902 26.902 0 015.303-3.017 27.865 27.865 0 015.772-1.816 27.313 27.313 0 015.8-.586c2.032.02 4.014.312 5.948.879 1.953.566 3.681 1.435 5.185 2.607 1.524 1.153 2.744 2.617 3.662 4.395.918 1.777 1.377 3.877 1.377 6.299 0 1.68-.293 3.564-.879 5.654-.586 2.07-1.601 4.365-3.047 6.885a552.797 552.797 0 01-4.365 7.5c-1.23 2.05-2.256 3.779-3.076 5.185-.801 1.387-1.396 2.5-1.787 3.34-.391.82-.586 1.475-.586 1.963 0 .469.205.84.615 1.113.43.274 1.026.41 1.787.41 1.035 0 2.256-.273 3.662-.82 1.407-.547 2.959-1.367 4.659-2.46a41.526 41.526 0 004.57-3.37 70.584 70.584 0 004.394-4.043 81.943 81.943 0 004.161-4.482 110.263 110.263 0 003.808-4.6 109 109 0 003.311-4.512 98.533 98.533 0 002.724-4.13 23.49 23.49 0 01-.849-3.458 20.131 20.131 0 01-.264-3.134c0-1.192.107-2.246.322-3.164.215-.938.498-1.72.85-2.344.371-.645.801-1.133 1.289-1.465a2.896 2.896 0 011.611-.498c.489 0 .909.117 1.26.352a2.7 2.7 0 01.908.85c.235.35.41.751.528 1.2.117.45.175.899.175 1.348 0 .684-.117 1.514-.351 2.49-.235.977-.664 2.13-1.289 3.457-.528 1.133-1.27 2.5-2.227 4.102a89.002 89.002 0 01-3.398 5.215 112.867 112.867 0 01-4.307 5.771 92.21 92.21 0 01-5.01 5.86 80.254 80.254 0 01-5.566 5.39 47.596 47.596 0 01-5.83 4.453c-2.09 1.348-3.877 2.276-5.361 2.783-1.485.508-2.735.762-3.75.762-.918 0-1.69-.137-2.315-.41-.605-.273-1.094-.644-1.465-1.113a4.072 4.072 0 01-.791-1.524 6.48 6.48 0 01-.234-1.728c0-.703.107-1.446.322-2.227a9.04 9.04 0 01.996-2.285c.528-.879 1.192-1.953 1.992-3.223.801-1.27 1.651-2.656 2.549-4.16a127.916 127.916 0 002.754-4.746 62.417 62.417 0 002.461-5.01 36.765 36.765 0 001.787-4.921c.469-1.602.703-3.086.703-4.454a8.767 8.767 0 00-.908-3.867c-.586-1.25-1.465-2.363-2.637-3.34-1.152-.976-2.578-1.757-4.277-2.343-1.699-.606-3.662-.909-5.889-.909-1.992 0-3.916.245-5.771.733a23.37 23.37 0 00-5.186 1.992 22.171 22.171 0 00-4.453 3.105 20.52 20.52 0 00-3.428 3.956 18.208 18.208 0 00-2.226 4.6 16.092 16.092 0 00-.791 5.009c0 1.64.254 3.096.762 4.365.527 1.25 1.23 2.295 2.109 3.135a8.827 8.827 0 003.047 1.904c1.152.43 2.363.645 3.633.645 1.367 0 2.744-.264 4.131-.791 1.386-.528 2.734-1.29 4.043-2.285 1.328-.997 2.597-2.198 3.808-3.604a34.011 34.011 0 003.369-4.775l1.172.703zm33.047-4.19a34.023 34.023 0 001.611-2.988c.43-.879.762-1.66.996-2.344.235-.683.391-1.279.469-1.787.098-.527.147-.986.147-1.377 0-.234-.02-.478-.059-.732a2.154 2.154 0 00-.234-.733 1.246 1.246 0 00-.44-.556c-.175-.137-.42-.205-.732-.205-.352 0-.674.166-.967.498-.293.312-.547.742-.762 1.289-.214.527-.381 1.152-.498 1.875a13.945 13.945 0 00-.175 2.285 18.614 18.614 0 00.644 4.775zM83.123 24.518a42.92 42.92 0 01-1.084 1.992c-.45.82-.937 1.728-1.465 2.724-.527.977-1.064 2.002-1.611 3.076a74.483 74.483 0 00-1.465 3.165 34.018 34.018 0 00-1.084 2.9c-.273.898-.41 1.66-.41 2.285 0 .625.117 1.035.352 1.23.253.176.576.264.966.264.567 0 1.143-.166 1.729-.498a8.798 8.798 0 001.758-1.289 16.577 16.577 0 001.699-1.787 33.755 33.755 0 001.523-1.992c.488-.684.928-1.328 1.319-1.934.39-.625.722-1.152.996-1.582l1.054.82a34.672 34.672 0 01-2.666 4.22 24.74 24.74 0 01-1.728 2.109 14.44 14.44 0 01-1.992 1.816 9.353 9.353 0 01-2.168 1.26 6.121 6.121 0 01-2.344.469c-1.172 0-2.031-.352-2.578-1.055-.547-.703-.82-1.611-.82-2.725v-.498c.019-.273.048-.488.087-.644-.976 1.23-1.914 2.246-2.812 3.047-.879.8-1.738 1.435-2.578 1.904-.82.469-1.621.79-2.403.967a8.841 8.841 0 01-2.197.293 5.856 5.856 0 01-2.11-.381 4.787 4.787 0 01-1.698-1.055 4.678 4.678 0 01-1.172-1.728c-.293-.684-.44-1.475-.44-2.373 0-1.114.254-2.383.762-3.809.488-1.445 1.367-2.998 2.637-4.658 1.074-1.426 2.187-2.627 3.34-3.604 1.171-.976 2.314-1.758 3.427-2.343 1.133-.606 2.207-1.036 3.223-1.29 1.016-.253 1.924-.38 2.724-.38 1.797 0 3.155.302 4.073.908.918.586 1.474 1.494 1.67 2.724.39-.488.8-.976 1.23-1.464.43-.489.87-.987 1.319-1.495l.937.41zM74.129 35.65c.254-.41.566-.927.937-1.552.371-.645.762-1.3 1.172-1.963.41-.684.81-1.338 1.201-1.963s.733-1.152 1.026-1.582c0-.176-.03-.46-.088-.85a3.057 3.057 0 00-.38-1.172c-.216-.41-.558-.761-1.026-1.054-.469-.293-1.123-.44-1.963-.44-.606 0-1.29.098-2.051.293-.742.176-1.543.488-2.402.938-.84.43-1.71 1.006-2.608 1.728-.898.723-1.797 1.621-2.695 2.695-1.348 1.622-2.393 3.252-3.135 4.893-.722 1.621-1.084 3.086-1.084 4.395 0 1.113.254 1.972.762 2.578.508.605 1.23.908 2.168.908 1.074 0 2.08-.234 3.018-.703a12.054 12.054 0 002.636-1.875 24.135 24.135 0 002.344-2.52c.742-.937 1.465-1.855 2.168-2.754zM85.027 2.398a24.16 24.16 0 01-3.984 2.08 28.21 28.21 0 01-4.248 1.319 33.935 33.935 0 01-4.512.703 53.087 53.087 0 01-4.687.205c-1.993 0-4.092-.098-6.3-.293-2.206-.215-4.403-.44-6.59-.674-2.169-.234-4.269-.449-6.3-.644-2.031-.215-3.867-.323-5.508-.323-2.402 0-4.59.313-6.562.938-1.973.605-3.662 1.475-5.068 2.607a11.722 11.722 0 00-3.282 4.043c-.761 1.563-1.142 3.31-1.142 5.245 0 1.347.224 2.568.674 3.662a7.682 7.682 0 001.962 2.724c.86.742 1.885 1.319 3.077 1.729 1.191.39 2.51.586 3.955.586 1.25 0 2.539-.147 3.867-.44a19.987 19.987 0 003.926-1.377l.615 1.201c-1.309.762-2.822 1.368-4.541 1.817-1.7.45-3.418.674-5.156.674-1.504 0-2.95-.215-4.336-.645a11.448 11.448 0 01-3.721-1.933c-1.074-.88-1.934-1.973-2.578-3.282-.645-1.328-.967-2.88-.967-4.658 0-1.758.264-3.33.791-4.717.527-1.406 1.25-2.646 2.168-3.72a13.352 13.352 0 013.223-2.784 19.87 19.87 0 013.955-1.875c1.426-.507 2.9-.869 4.424-1.084a29.828 29.828 0 014.54-.351c1.797 0 3.721.107 5.772.322 2.07.215 4.18.45 6.328.703 2.149.235 4.307.46 6.475.674 2.168.215 4.267.322 6.299.322 1.523 0 3.027-.058 4.511-.175a33.587 33.587 0 004.307-.674 26.979 26.979 0 004.043-1.23 21.434 21.434 0 003.75-1.964l.82 1.29zM64.461 9.283a47.284 47.284 0 00-4.424 6.27 112.444 112.444 0 00-3.545 6.533 241.283 241.283 0 00-3.076 6.504 98.352 98.352 0 01-3.047 6.094 47.837 47.837 0 01-3.398 5.332 21.023 21.023 0 01-4.102 4.218c-1.523 1.192-3.271 2.12-5.244 2.784-1.953.683-4.2 1.025-6.738 1.025-2.246 0-4.239-.293-5.977-.879-1.719-.566-3.164-1.357-4.336-2.373-1.172-.996-2.06-2.168-2.666-3.516-.605-1.367-.908-2.841-.908-4.423 0-.606.04-1.182.117-1.729a7.982 7.982 0 01.352-1.494l1.465.44c-.118.39-.215.83-.293 1.318a8.904 8.904 0 00-.118 1.465c0 1.62.342 3.037 1.026 4.248a9.304 9.304 0 002.695 3.017c1.113.801 2.383 1.397 3.809 1.787 1.425.41 2.88.615 4.365.615 2.148 0 4.053-.37 5.713-1.113a16.444 16.444 0 004.57-3.017c1.367-1.29 2.608-2.793 3.72-4.512a70.236 70.236 0 003.282-5.537 223.145 223.145 0 003.164-6.153 111.254 111.254 0 013.457-6.328 63.055 63.055 0 014.102-6.035 32.879 32.879 0 015.097-5.332l.938.791zM0 0H11V16H0z" fill="#036"/><path fill="#fff" d="M0 16H11V32H0z"/><path fill="#830000" d="M0 32H11V48H0z"/></svg>